HIERARCHY
ROOT pelvis
{
  OFFSET 0 100 0
  CHANNELS 6 Xposition Yposition Zposition Zrotation Xrotation Yrotation
  JOINT pelvis_right_femur
  {
    OFFSET -10.78128 -3.44521 -0.5502486
    CHANNELS 3 Zrotation Xrotation Yrotation
    JOINT right_femur_tibia
    {
      OFFSET -0.8047443 -44.0398 -0.1307829
      CHANNELS 3 Zrotation Xrotation Yrotation
      JOINT right_tibia_foot
      {
        OFFSET 3.006224 -47.83518 -5
        CHANNELS 3 Zrotation Xrotation Yrotation
        End Site
        {
          OFFSET 0 -5 15
        }
      }
    }
  }
  JOINT pelvis_left_femur
  {
    OFFSET 10.78128 -3.44521 -0.5502486
    CHANNELS 3 Zrotation Xrotation Yrotation
    JOINT left_femur_tibia
    {
      OFFSET 0.8047443 -44.0398 -0.1307829
      CHANNELS 3 Zrotation Xrotation Yrotation
      JOINT left_tibia_foot
      {
        OFFSET -4.370144 -48.10324 -4.275266
        CHANNELS 3 Zrotation Xrotation Yrotation
        End Site
        {
          OFFSET 0 -5 15
        }
      }
    }
  }
  JOINT pelvis_spine1
  {
    OFFSET 0 6.468898 -3.129235
    CHANNELS 3 Zrotation Xrotation Yrotation
    JOINT spine1
    {
      OFFSET 0 23.15396 4.99043
      CHANNELS 3 Zrotation Xrotation Yrotation
      JOINT spine2
      {
        OFFSET 0 20.79997 -5.064912
        CHANNELS 3 Zrotation Xrotation Yrotation
        JOINT neck
        {
          OFFSET 0 14.38658 9.616178
          CHANNELS 3 Zrotation Xrotation Yrotation
          End Site
          {
            OFFSET 0 20 0
          }
        }
      }
      JOINT right_manubrium
      {
        OFFSET -5.722621 16.35077 3.967754
        CHANNELS 3 Zrotation Xrotation Yrotation
        JOINT right_clavicle
        {
          OFFSET -13.16364 1.694482 -4.693211
          CHANNELS 3 Zrotation Xrotation Yrotation
          JOINT right_humerus
          {
            OFFSET -28.5034 -0.3100689 -2.792744
            CHANNELS 3 Zrotation Xrotation Yrotation
            JOINT right_radius
            {
              OFFSET -25.15693 0.02248979 -1.271978
              CHANNELS 3 Zrotation Xrotation Yrotation
              End Site
              {
                OFFSET -15 0 0
              }
            }
          }
        }
      }
      JOINT left_manubrium
      {
        OFFSET 5.722621 16.35077 3.967754
        CHANNELS 3 Zrotation Xrotation Yrotation
        JOINT left_clavicle
        {
          OFFSET 13.16364 1.694482 -4.693211
          CHANNELS 3 Zrotation Xrotation Yrotation
          JOINT left_humerus
          {
            OFFSET 29.39168 -1.063119 -2.237045
            CHANNELS 3 Zrotation Xrotation Yrotation
            JOINT left_radius
            {
              OFFSET 24.59957 -0.9528479 0.9047498
              CHANNELS 3 Zrotation Xrotation Yrotation
              End Site
              {
                OFFSET 15 -0 -0
              }
            }
          }
        }
      }
    }
  }
}
MOTION
Frames: 15
Frame Time: 0.0416666666667
0 103.5113 0 0.5125201 -1.452191 -0.03713028 3.698658 -16.63953 7.487789 -0 40.28485 -0 -5.119978 -14.19108 -2.471048 -7.130102 8.175699 -21.38554 -0 7.439123 -0 10.48086 -14.78786 26.26453 -3.158709 -3.869005 4.516464 2.227927 10.76458 -7.241128 1.281165 22.34366 6.852202 3.283413 -23.21403 9.108958 7.12772 -19.70756 12.72887 84.31801 32.98988 -17.60921 -0 0 15.07164 -9.789012 10.04826 5.456958 7.006687 -20.86137 -1.677889 -93.49241 22.24884 20.76645 0 0 -13.81406 14.63746 18.49524 -2.905262
0.3641291 104.0152 1.984397 0.2954697 -1.052373 -0.02604727 4.072388 -18.75446 7.270283 -0 38.6414 -0 -5.421239 -13.38832 -2.389143 -6.912458 9.24201 -21.18584 -0 7.458473 -0 9.67519 -15.84337 25.59192 -3.06761 -3.473441 4.239745 2.378361 10.44048 -7.389229 1.256027 22.23004 6.997504 3.325772 -23.66756 9.246612 6.805792 -19.42784 12.54406 84.85755 33.16231 -18.22293 -0 0 14.58605 -9.499428 9.612405 5.252098 6.981585 -20.89114 -1.674137 -93.1111 22.84601 20.30043 0 0 -14.77711 13.93991 18.24854 -2.143074
0.6955219 104.4569 4.475969 -0.1845577 -0.5150303 0.05252703 4.696398 -22.1283 6.025807 -0 34.93449 -0 -5.930479 -10.70683 -1.518453 -6.420694 9.681494 -19.59283 -0 9.352565 -0 9.617691 -16.13191 24.10578 -2.65609 -3.182298 3.966402 2.516974 10.8016 -7.549872 1.18239 21.94059 7.259706 3.524483 -24.15134 9.302858 6.372303 -19.10846 12.60766 85.4649 32.05048 -18.94748 -0 0 13.25554 -10.58556 10.05344 5.772105 7.368556 -21.95322 -2.012511 -91.9584 21.19438 18.65089 0 0 -16.38714 16.12337 17.3966 -4.476929
0.990179 104.7948 7.317086 -0.4500596 0.4718658 0.2171081 5.352609 -25.52582 5.798779 -0 30.84992 -0 -6.164116 -9.347023 -1.141571 -6.227609 10.71256 -18.82342 -0 9.941431 -0 9.737728 -16.93514 23.38578 -2.533661 -2.869882 3.901571 2.773548 10.6763 -7.815281 1.175863 21.49881 7.423981 3.565187 -24.94244 9.524587 5.947689 -18.88789 12.39245 86.20411 32.48464 -19.83916 -0 0 12.47423 -10.32905 9.920556 5.739411 7.472062 -22.36942 -1.99132 -90.90989 20.64528 17.54598 0 0 -18.60265 16.66946 16.11883 -4.920125
1.257847 105.0182 10.39322 -0.6210567 1.684231 0.4821374 6.129507 -28.54429 6.414292 -0 27.33248 -0 -6.193721 -8.837054 -1.168332 -6.200185 11.89162 -18.6918 -0 9.750638 -0 9.903 -17.9343 23.21944 -2.586351 -2.533736 3.944901 3.090432 10.21146 -8.078971 1.262245 20.98622 7.463417 3.492829 -25.88058 9.856811 5.611389 -18.72734 12.00249 86.85064 33.88853 -20.58626 -0 0 12.25298 -9.140083 9.4366 5.330599 7.387221 -22.18149 -1.645398 -90.12948 20.82079 17.02093 0 0 -20.53143 16.23031 14.72057 -4.264591
1.504687 105.1313 13.58825 -0.792076 2.980466 0.8710127 7.088662 -31.04343 7.727542 -0 24.56772 -0 -6.077024 -9.002185 -1.578367 -6.21712 13.14127 -19.19916 -0 8.989846 -0 9.607246 -19.22032 23.37328 -2.747602 -2.083975 3.971036 3.462466 9.369939 -8.273254 1.469856 20.48277 7.377257 3.34615 -26.90213 10.29369 5.355912 -18.53327 11.43569 87.26829 35.85262 -21.04153 -0 0 12.66014 -7.179689 8.613047 4.581304 7.166053 -21.29792 -0.9952285 -89.92521 21.95506 17.20181 0 0 -21.43195 14.70337 13.47304 -2.48097
1.736169 105.1411 16.86636 -1.030647 4.015667 1.384332 8.001345 -32.83214 8.898972 -0 22.2795 -0 -5.94525 -9.243713 -2.087127 -6.135354 14.18448 -19.82816 -0 8.534511 -0 8.417342 -20.63138 23.1945 -2.86922 -1.585522 3.865903 3.815283 8.425837 -8.354462 1.727415 20.11229 7.236666 3.23788 -27.71023 10.66052 5.181703 -18.21908 10.86732 87.33107 37.29814 -21.19238 -0 0 13.31843 -5.407327 7.853959 3.865603 6.96874 -20.18751 -0.3438563 -90.35189 23.65628 17.81413 0 0 -21.16271 12.52424 12.76091 -0.1161299
1.986274 105.0458 20.48826 -1.404006 4.463643 1.984777 8.46479 -34.5511 8.487178 -0 19.7342 -0 -6.117645 -7.882746 -2.014721 -5.849174 14.63995 -19.03268 -0 9.653531 -0 6.787918 -21.65042 21.67678 -2.696763 -1.232986 3.611995 4.004012 8.147277 -8.44742 1.761575 19.83004 7.244059 3.318221 -27.98572 10.59984 5.042876 -17.84796 10.77383 87.39458 36.96083 -21.43513 -0 0 12.92711 -5.654569 7.979897 3.986695 7.067727 -20.29598 -0.2480973 -90.15938 23.77228 17.52121 0 0 -21.60492 11.69205 12.64616 0.6560493
2.345322 104.676 25.1074 -1.575561 3.816833 2.530236 7.447262 -36.27254 4.559175 -0 14.86064 -0 -6.946382 -2.847752 -0.5961917 -5.599537 14.34221 -14.76417 -0 12.53844 -0 6.153624 -21.68045 18.3387 -2.077024 -1.380954 3.544809 3.708042 9.506739 -8.712073 1.203086 19.54353 7.567526 3.550994 -27.40612 9.6899 4.236375 -17.93244 11.60712 88.95735 33.54738 -22.70958 -0 0 9.723371 -10.16307 9.361498 6.071402 7.616053 -23.53296 -1.484022 -87.18006 19.11603 14.52449 0 0 -26.9361 14.60689 12.45915 -2.653547
2.765197 103.5973 31.23831 -0.3482308 0.9421322 2.900364 4.022927 -33.6566 -3.110063 -0 5.181406 -0 -8.438383 4.005908 0.8908593 -6.125834 15.60088 -8.587795 -0 15.19286 -0 5.360368 -21.25511 14.21226 -1.322422 -2.485312 3.884227 2.539189 11.43171 -8.727434 0.4222624 20.1936 7.511643 3.169152 -25.30124 8.000704 0.5521906 -18.94027 12.16987 93.99936 25.90789 -25.65945 -0 0 4.431764 -17.8012 9.62975 9.460653 7.491319 -28.39745 -4.672653 -82.38389 13.52396 10.0501 0 0 -38.65031 15.56462 12.23453 -3.790846
3.025925 102.6077 38.51432 0.3840102 -1.96862 3.438058 3.862679 -29.08027 -5.271468 -0 2.888407 -0 -10.36013 7.377064 -0.5943176 -6.328717 19.97158 -6.613728 -0 19.06244 -0 2.483503 -20.19303 12.22918 -0.3115955 -3.249992 3.240905 1.732459 11.15469 -8.579575 0.6317453 21.63909 6.349675 1.917567 -23.58347 7.275185 -3.809331 -19.27862 11.2363 99.05592 20.75486 -27.54993 -0 0 1.929076 -19.59186 7.566877 9.329576 5.954833 -28.63682 -6.600389 -80.17314 14.57515 8.276532 0 0 -43.49418 10.92031 12.81236 0.4477937
3.152962 102.7201 46.04872 -0.5555161 -2.995319 3.78309 6.442417 -26.38046 -2.330722 -0 8.250324 -0 -11.50191 7.086117 -2.36988 -5.499962 20.98729 -7.304015 -0 27.86704 -0 0.2322871 -17.23523 12.83074 0.8429446 -3.204959 2.513012 1.767743 11.01432 -8.726506 1.102738 22.01672 5.795907 1.46234 -23.4564 7.726187 -4.724604 -18.85465 10.74291 100.3889 20.77689 -27.6761 -0 0 2.313019 -17.75913 6.952905 7.500177 5.263024 -27.0061 -6.062794 -81.72066 16.23418 9.58747 0 0 -38.51849 9.82858 12.98072 0.6805851
3.227674 103.7604 53.34839 -1.372045 -3.788006 3.717811 8.340152 -22.75152 0.7146289 -0 12.18681 -0 -11.82257 5.085399 -3.283446 -4.78026 17.76726 -7.570576 -0 39.04242 -0 -0.513965 -13.56179 14.65305 1.561607 -2.951325 2.808223 1.772422 12.02777 -8.909457 1.309817 21.72823 5.843588 1.604751 -23.54438 8.283149 -4.348629 -18.91207 10.87232 100.4282 22.12036 -27.3282 -0 0 3.344452 -16.70694 7.603602 6.244657 5.241369 -26.43738 -5.206042 -83.81384 15.71745 11.67251 0 0 -32.80958 11.81663 12.45828 -1.980272
3.265548 105.3001 60.27904 -1.489434 -5.222982 3.26824 8.916235 -17.73633 2.330144 -0 13.29965 -0 -12.08264 3.053462 -3.803028 -4.168573 12.47266 -7.050953 -0 48.58552 -0 -0.2967518 -10.3251 16.44333 1.835966 -2.619168 3.733719 1.485541 13.46019 -8.889476 1.436934 21.54263 5.657659 1.608103 -23.24733 8.387673 -4.510779 -19.71167 11.21778 100.644 22.57222 -26.65779 -0 0 4.553203 -16.99108 8.328554 5.802009 5.050779 -26.52218 -5.05239 -84.9645 14.24225 13.75864 0 0 -29.21244 13.75901 12.02092 -4.187882
3.249045 107.0487 66.75913 -1.321051 -6.799397 2.549582 8.886417 -12.12997 3.270559 -0 13.02753 -0 -12.39907 0.9962132 -4.197654 -3.316045 6.459138 -6.312041 -0 54.38701 -0 0.0138155 -7.82393 17.75832 1.885899 -2.105919 4.811494 1.119369 14.64382 -8.725111 1.55175 21.45649 5.096944 1.2942 -22.93957 8.161329 -5.128244 -21.03929 11.58662 100.8736 22.67584 -25.55233 -0 0 6.464709 -17.50939 8.716181 5.640965 4.52517 -26.34511 -5.239659 -85.59733 12.9312 16.24613 0 0 -26.36172 14.77809 11.9029 -5.390479
